<?xml version="1.0" encoding="UTF-8"?><svg id="Capa_1" xmlns="http://www.w3.org/2000/svg" viewBox="0 0 32 32"><defs><style>.cls-1{fill:#fff;}.cls-2{fill:#e13130;}</style></defs><path class="cls-1" d="M30.86,16.01c0,4.98-6.66,9.02-14.87,9.02S1.12,21,1.12,16.01,7.77,6.99,15.99,6.99s14.87,4.04,14.87,9.02"/><path class="cls-2" d="M16.76,6.26c9.91,0,14.06,6.02,14.4,8.01.57,3.36-.88,5.83-3.38,7.81-2.86,2.27-6.22,3.25-9.8,3.55-4.38.37-8.59-.27-12.4-2.56-1.14-.68-2.22-1.58-3.08-2.59C-.03,17.51.16,13.86,2.87,11.03c4.15-4.4,10.13-4.77,13.9-4.77M16.36,24.55c1.7.07,3.79-.26,5.83-.89,2.3-.72,4.42-1.78,6.05-3.63,2.07-2.33,2.25-5.5.23-7.72-.98-1.08-2.16-2.06-3.44-2.75-3.81-2.07-7.95-2.46-12.2-1.89-3.21.43-6.19,1.47-8.62,3.71-2.38,2.19-2.88,5.11-1.31,7.67.88,1.43,2.14,2.48,3.6,3.28,2.93,1.61,6.09,2.24,9.85,2.24"/><path class="cls-2" d="M7.33,10.64c.41-.2.82-.42,1.25-.58,5.43-1.98,10.79-1.96,16.03.63,1.78.88,3.19,2.18,3.85,4.13.02.07.07.27.05.44-.85-1.46-2.12-1.68-3.51-1.65-2.07.05-4.14.02-6.21-.02-.49,0-.69-.24-.73-.44-.39-1.6-1.57-2.34-3.25-2.34-2.33,0-4.67.02-7,.03-.15,0-.29-.03-.44-.05-.01-.05-.03-.1-.04-.15"/><path class="cls-2" d="M11.74,13.09c.79,0,1.59-.03,2.38,0,.98.04,1.37.52,1.28,1.5-.07.76-.16,1.52-.26,2.28-.11.85-.59,1.38-1.44,1.4-1.67.05-3.33.03-5,.04-.4,0-.57-.15-.52-.58.16-1.36.32-2.73.45-4.09.04-.44.23-.59.66-.58.82.02,1.64,0,2.46,0h0"/><path class="cls-2" d="M6.59,20.64c1.83,0,3.65,0,5.48,0,.64,0,1.27-.02,1.91-.02,1.43.01,2.47-.65,3.39-1.77-.16,1.46-.32,2.92-.49,4.45-3.71.06-7.19-.48-10.32-2.41.01-.08.03-.17.04-.25"/><path class="cls-2" d="M6.26,11.5c-.3,2.76-.6,5.53-.91,8.46-1.3-1.16-2.06-2.4-2.05-4,.02-2.04,1.27-3.37,2.96-4.46"/><path class="cls-2" d="M20.15,18.09c-.04-.18-.06-.23-.06-.28q.06-1.92,1.98-1.92c.98,0,1.96,0,2.94,0,.65,0,1.08.25,1.14.94.05.63-.41,1.24-1.07,1.25-1.64.04-3.27.01-4.93.01"/><path class="cls-2" d="M19.5,23.03c.09-.84.13-1.55.28-2.23.04-.18.46-.37.71-.38,1.27-.04,2.54-.02,3.81-.01.55,0,1.09,0,1.69,0-1.87,1.45-4.05,2.12-6.49,2.62"/></svg>